<?xml version="1.0" encoding="iso-8859-1"?>
<!-- Generator: Adobe Illustrator 22.0.1, SVG Export Plug-In . SVG Version: 6.00 Build 0)  -->
<svg version="1.1" xmlns="http://www.w3.org/2000/svg" xmlns:xlink="http://www.w3.org/1999/xlink" x="0px" y="0px"
	 viewBox="0 0 512 512" style="enable-background:new 0 0 512 512;" xml:space="preserve">
<g id="BULINE">
	<path id="XMLID_882_" style="fill:#A9E7D8;" d="M512,256c0,70.692-28.654,134.692-74.981,181.019S326.692,512,256,512
		s-134.692-28.654-181.019-74.981S0,326.692,0,256S28.654,121.308,74.981,74.981S185.308,0,256,0s134.692,28.654,181.019,74.981
		S512,185.308,512,256z"/>
</g>
<g id="Icons">
	<g id="XMLID_818_">
		<path id="XMLID_1192_" style="fill:#93D8C6;" d="M503.31,322.36c-8.225,30.74-22.033,59.2-40.268,84.227
			c-18.235,25.027-40.898,46.622-66.833,63.633c-7.165,4.7-14.58,9.05-22.221,13.025c-7.641,3.975-15.509,7.575-23.579,10.775
			c-7.93,3.15-16.055,5.915-24.351,8.271s-16.764,4.304-25.379,5.819c-4.23,0.745-8.495,1.387-12.792,1.922
			s-8.627,0.963-12.987,1.278c-3.12,0.23-6.255,0.402-9.405,0.517S259.18,512,256,512c-3.37,0-6.727-0.065-10.069-0.195
			s-6.666-0.325-9.971-0.585c-3.78-0.29-7.537-0.662-11.27-1.117c-3.732-0.455-7.44-0.992-11.12-1.612
			c-8.61-1.43-17.075-3.295-25.371-5.569c-8.296-2.274-16.424-4.956-24.359-8.021v0.205v0.205c-0.22-0.15-0.438-0.303-0.655-0.455
			s-0.435-0.305-0.655-0.455c-9.18-3.605-18.103-7.722-26.73-12.319c-8.627-4.596-16.96-9.671-24.96-15.191
			c-28.99-19.995-53.655-45.81-72.305-75.759S7.25,327.1,2.32,290.57c15.32-7.84,39.27-17.708,67.357-20.878
			S129.99,270.05,161.86,289c0,0,6.853,3.652,17.591,6.594c10.739,2.941,25.364,5.171,40.909,2.326
			c1.105-0.2,2.213-0.425,3.324-0.677s2.226-0.533,3.346-0.843c1.765-0.495,3.54-1.06,5.317-1.702
			c1.777-0.642,3.557-1.362,5.332-2.167c3.3-1.485,6.59-3.265,9.845-5.376s6.475-4.554,9.635-7.364c0.735-0.65,1.465-1.32,2.19-2.01
			c0.725-0.69,1.445-1.4,2.16-2.13c0,0,0.013-0.01,0.039-0.031c0.026-0.021,0.066-0.054,0.121-0.099
			c0.615-0.48,2.973-2.3,6.701-4.797c3.729-2.498,8.829-5.673,14.929-8.863c1.715-0.9,3.512-1.802,5.381-2.691
			c1.869-0.889,3.809-1.764,5.809-2.609c14.725-6.22,32.832-10.903,50.99-8.148s36.365,12.947,51.29,36.478
			c0,0,0.59,10.715,6.753,19.884c6.162,9.169,17.897,16.791,40.187,10.606c0,0,8.47-1.103,20.155-0.781
			C475.55,314.92,490.45,316.665,503.31,322.36z"/>
		<g id="XMLID_820_">
			<path id="XMLID_1135_" style="fill:#D99155;" d="M300.68,508.11c-4.23,0.745-8.495,1.387-12.792,1.922s-8.627,0.963-12.987,1.278
				c-3.12,0.23-6.255,0.402-9.405,0.517S259.18,512,256,512c-3.37,0-6.727-0.065-10.069-0.195s-6.666-0.325-9.971-0.585
				c-3.78-0.29-7.537-0.662-11.27-1.117c-3.732-0.455-7.44-0.992-11.12-1.612c-8.61-1.43-17.075-3.295-25.371-5.569
				c-8.296-2.274-16.424-4.956-24.359-8.021v0.205v0.205c-0.22-0.15-0.438-0.303-0.655-0.455s-0.435-0.305-0.655-0.455
				c-9.18-3.605-18.103-7.722-26.73-12.319c-8.627-4.596-16.96-9.671-24.96-15.191l4.43-30.565l4.43-30.565
				c0.155-1.09,0.328-2.178,0.514-3.26c0.186-1.083,0.386-2.16,0.596-3.23c0.215-1.08,0.44-2.153,0.677-3.219
				s0.487-2.126,0.753-3.181c0,0,0,0,0-0.001s0-0.004,0-0.009c0.11-0.42,0.22-0.84,0.331-1.259s0.224-0.836,0.339-1.251
				c0.265-0.98,0.54-1.955,0.826-2.924s0.584-1.931,0.894-2.886c0.11-0.34,0.223-0.68,0.336-1.02c0.114-0.34,0.229-0.68,0.344-1.02
				c0.355-1.015,0.72-2.028,1.095-3.035s0.76-2.01,1.155-3.005c1.73-4.325,3.692-8.532,5.869-12.605
				c2.176-4.073,4.566-8.01,7.151-11.795c1.185-1.73,2.41-3.428,3.675-5.091s2.57-3.294,3.915-4.889
				c0.225-0.265,0.448-0.532,0.673-0.8c0.225-0.268,0.453-0.535,0.688-0.8c1.505-1.725,3.055-3.407,4.65-5.045
				s3.235-3.23,4.92-4.775c0.225-0.205,0.45-0.41,0.675-0.614c0.225-0.204,0.45-0.406,0.675-0.606c0.25-0.225,0.5-0.447,0.751-0.669
				c0.251-0.221,0.504-0.441,0.759-0.661c0.225-0.195,0.452-0.39,0.681-0.584s0.459-0.386,0.689-0.576
				c0.085-0.07,0.17-0.14,0.255-0.21s0.17-0.14,0.255-0.21v-0.005v-0.005c0.55-0.455,1.102-0.905,1.659-1.35s1.116-0.885,1.681-1.32
				c0.205-0.16,0.413-0.317,0.62-0.475c0.207-0.158,0.415-0.315,0.62-0.475c0.045-0.03,0.088-0.06,0.13-0.091
				c0.043-0.031,0.085-0.064,0.13-0.099c0.315-0.235,0.63-0.467,0.946-0.699s0.634-0.461,0.954-0.691
				c0.665-0.48,1.337-0.953,2.015-1.418c0.678-0.465,1.36-0.922,2.045-1.372c0.245-0.16,0.49-0.32,0.735-0.478
				s0.49-0.312,0.735-0.463c0.51-0.335,1.022-0.66,1.539-0.979c0.516-0.319,1.036-0.631,1.561-0.941
				c0.385-0.23,0.773-0.46,1.161-0.687s0.779-0.452,1.169-0.672v-0.005V314.3c0.075-0.04,0.15-0.083,0.226-0.126
				c0.076-0.044,0.154-0.089,0.234-0.134c0.22-0.125,0.44-0.247,0.661-0.369s0.444-0.241,0.669-0.361
				c0.165-0.09,0.33-0.18,0.495-0.269c0.165-0.089,0.33-0.176,0.495-0.261c0.045-0.025,0.09-0.05,0.135-0.075
				c0.045-0.025,0.09-0.05,0.135-0.075c0.345-0.18,0.692-0.36,1.041-0.539c0.349-0.179,0.699-0.356,1.049-0.531
				c0.395-0.2,0.788-0.395,1.181-0.588s0.789-0.383,1.189-0.573c0.005,0,0.008-0.002,0.01-0.005s0.005-0.005,0.01-0.005
				c0.015-0.01,0.027-0.018,0.04-0.024s0.025-0.011,0.04-0.016c0.01-0.005,0.022-0.01,0.035-0.015
				c0.012-0.005,0.025-0.01,0.035-0.015c0.36-0.17,0.72-0.34,1.08-0.509c0.36-0.169,0.72-0.336,1.08-0.501
				c0.02-0.005,0.037-0.013,0.055-0.02s0.035-0.015,0.055-0.02c0.255-0.115,0.513-0.23,0.771-0.344
				c0.259-0.114,0.519-0.226,0.779-0.336c0.075-0.035,0.15-0.067,0.226-0.1s0.154-0.065,0.234-0.1c0.27-0.115,0.54-0.23,0.81-0.344
				c0.27-0.114,0.54-0.226,0.81-0.336c0.015-0.005,0.027-0.01,0.04-0.015s0.025-0.01,0.04-0.015c0.01-0.005,0.018-0.008,0.025-0.01
				s0.015-0.005,0.025-0.01c0.45-0.185,0.903-0.367,1.358-0.547c0.455-0.18,0.912-0.358,1.372-0.533
				c0.05-0.02,0.103-0.04,0.155-0.06c0.052-0.02,0.105-0.04,0.155-0.06c0.035-0.015,0.067-0.028,0.1-0.04
				c0.032-0.013,0.065-0.025,0.1-0.04c0.02-0.005,0.04-0.013,0.06-0.02s0.04-0.015,0.06-0.02c0.47-0.18,0.94-0.355,1.411-0.526
				s0.944-0.339,1.419-0.504l2.575-0.89l2.575-0.89h0.005h0.005c0,0,0,0,0.001-0.001s0.004-0.004,0.009-0.009l2.265-0.78l2.265-0.78
				l1.215-0.42l1.215-0.42l2.23-0.775l2.23-0.775l1.165-0.405l1.165-0.405l3.015-1.045l3.015-1.045c0.005,0,0.01,0,0.015-0.001
				s0.01-0.004,0.015-0.009c0.105-0.035,0.21-0.075,0.313-0.119c0.103-0.044,0.203-0.091,0.298-0.141
				c0.725-0.38,1.322-0.937,1.739-1.609c0.416-0.671,0.651-1.456,0.651-2.291v-21.105V250.29h26.94h26.94v21.46v21.46
				c0,0.86,0.253,1.68,0.701,2.375c0.449,0.695,1.094,1.265,1.879,1.625l2.45,1.11l2.45,1.11l0.18,0.085l0.18,0.085l3.82,1.725
				l3.82,1.725l0.95,0.32l0.95,0.32l2.29,0.775l2.29,0.775c0.24,0.08,0.482,0.162,0.725,0.247s0.485,0.173,0.725,0.263
				c1.145,0.395,2.28,0.812,3.406,1.246c1.126,0.434,2.244,0.884,3.354,1.344c0.67,0.285,1.338,0.575,2.001,0.871
				c0.664,0.296,1.324,0.599,1.979,0.909c0.16,0.07,0.32,0.142,0.479,0.216c0.159,0.074,0.316,0.149,0.471,0.224
				c0.17,0.08,0.34,0.16,0.511,0.241c0.171,0.081,0.344,0.164,0.519,0.249c0.545,0.265,1.09,0.532,1.634,0.806
				c0.544,0.274,1.086,0.554,1.626,0.844c0.21,0.105,0.415,0.21,0.619,0.316c0.204,0.106,0.406,0.214,0.611,0.324
				c0.845,0.46,1.688,0.93,2.524,1.409c0.836,0.479,1.666,0.966,2.486,1.461c1.98,1.195,3.92,2.44,5.819,3.736
				c1.899,1.296,3.756,2.644,5.571,4.044c0.45,0.345,0.9,0.695,1.347,1.049c0.448,0.354,0.893,0.711,1.333,1.071
				c0.675,0.55,1.345,1.11,2.01,1.677c0.665,0.568,1.325,1.143,1.98,1.723c0.23,0.2,0.457,0.402,0.684,0.606
				s0.451,0.409,0.676,0.614c0.17,0.155,0.34,0.313,0.51,0.471c0.17,0.159,0.34,0.319,0.51,0.479c0.175,0.165,0.35,0.33,0.524,0.495
				c0.174,0.165,0.346,0.33,0.516,0.495c0.255,0.24,0.508,0.483,0.758,0.726s0.497,0.489,0.742,0.734
				c0.2,0.195,0.398,0.392,0.594,0.591c0.196,0.199,0.391,0.399,0.586,0.599c0.77,0.775,1.525,1.562,2.267,2.36
				s1.473,1.605,2.193,2.42c0.185,0.21,0.372,0.423,0.559,0.636s0.371,0.429,0.551,0.644c0.2,0.225,0.398,0.452,0.593,0.682
				s0.388,0.463,0.578,0.698c0.245,0.29,0.49,0.582,0.732,0.877c0.242,0.295,0.482,0.592,0.717,0.893
				c0.095,0.115,0.19,0.23,0.284,0.346s0.186,0.234,0.276,0.354c0.245,0.305,0.487,0.612,0.727,0.921s0.477,0.619,0.712,0.929
				c0.28,0.365,0.56,0.733,0.838,1.103c0.277,0.37,0.552,0.742,0.822,1.117c1.69,2.325,3.303,4.712,4.835,7.157
				c1.533,2.445,2.985,4.947,4.355,7.502c3.6,6.72,6.613,13.807,8.98,21.185c2.367,7.378,4.09,15.045,5.11,22.925l3.995,31.075
				l3.995,31.075c-7.165,4.7-14.58,9.05-22.221,13.025c-7.641,3.975-15.509,7.575-23.579,10.775
				c-7.93,3.15-16.055,5.915-24.351,8.271S309.295,506.595,300.68,508.11z"/>
			<path id="XMLID_1086_" style="fill:#E9B12D;" d="M396.21,470.22c-7.165,4.7-14.58,9.05-22.221,13.025
				c-7.641,3.975-15.509,7.575-23.579,10.775c-7.93,3.15-16.055,5.915-24.351,8.271s-16.764,4.304-25.379,5.819
				c-4.23,0.745-8.495,1.387-12.792,1.922s-8.627,0.963-12.987,1.278c-3.12,0.23-6.255,0.402-9.405,0.517S259.18,512,256,512
				c-3.37,0-6.727-0.065-10.069-0.195s-6.666-0.325-9.971-0.585c-3.78-0.29-7.537-0.662-11.27-1.117
				c-3.732-0.455-7.44-0.992-11.12-1.612c-8.61-1.43-17.075-3.295-25.371-5.569c-8.296-2.274-16.424-4.956-24.359-8.021v0.205v0.205
				c-0.22-0.15-0.438-0.303-0.655-0.455s-0.435-0.305-0.655-0.455c-9.18-3.605-18.103-7.722-26.73-12.319
				c-8.627-4.596-16.96-9.671-24.96-15.191l4.43-30.565l4.43-30.565c0.155-1.09,0.328-2.178,0.514-3.26
				c0.186-1.083,0.386-2.16,0.596-3.23c0.215-1.08,0.44-2.153,0.677-3.219s0.487-2.126,0.753-3.181c0,0,0,0,0-0.001s0-0.004,0-0.009
				c0.11-0.42,0.22-0.84,0.331-1.259s0.224-0.836,0.339-1.251c0.265-0.98,0.54-1.955,0.826-2.924s0.584-1.931,0.894-2.886
				c0.11-0.34,0.223-0.68,0.336-1.02c0.114-0.34,0.229-0.68,0.344-1.02c0.355-1.015,0.72-2.028,1.095-3.035s0.76-2.01,1.155-3.005
				c1.73-4.325,3.692-8.532,5.869-12.605c2.176-4.073,4.566-8.01,7.151-11.795c1.185-1.73,2.41-3.428,3.675-5.091
				s2.57-3.294,3.915-4.889c0.225-0.265,0.448-0.532,0.673-0.8c0.225-0.268,0.453-0.535,0.688-0.8
				c1.505-1.725,3.055-3.407,4.65-5.045s3.235-3.23,4.92-4.775c0.225-0.205,0.45-0.41,0.675-0.614
				c0.225-0.204,0.45-0.406,0.675-0.606c0.25-0.225,0.5-0.447,0.751-0.669c0.251-0.221,0.504-0.441,0.759-0.661
				c0.225-0.195,0.452-0.39,0.681-0.584s0.459-0.386,0.689-0.576c0.085-0.075,0.17-0.147,0.255-0.219s0.17-0.141,0.255-0.211
				c0.55-0.455,1.102-0.905,1.659-1.35s1.116-0.885,1.681-1.32c0.205-0.16,0.413-0.317,0.62-0.475
				c0.207-0.158,0.415-0.315,0.62-0.475c0.045-0.03,0.088-0.06,0.13-0.091c0.043-0.031,0.085-0.064,0.13-0.099
				c0.315-0.235,0.63-0.467,0.946-0.699s0.634-0.461,0.954-0.691c0.665-0.48,1.337-0.953,2.015-1.418
				c0.678-0.465,1.36-0.922,2.045-1.372c0.245-0.16,0.49-0.32,0.735-0.478s0.49-0.312,0.735-0.463
				c0.51-0.335,1.022-0.66,1.539-0.979c0.516-0.319,1.036-0.631,1.561-0.941c0.385-0.23,0.773-0.46,1.161-0.687
				s0.779-0.452,1.169-0.672v-0.005V314.3c0.075-0.04,0.15-0.083,0.226-0.126c0.076-0.044,0.154-0.089,0.234-0.134
				c0.22-0.125,0.44-0.247,0.661-0.369s0.444-0.241,0.669-0.361c0.165-0.09,0.33-0.18,0.495-0.269
				c0.165-0.089,0.33-0.176,0.495-0.261c0.045-0.025,0.09-0.05,0.135-0.075c0.045-0.025,0.09-0.05,0.135-0.075
				c0.01-0.005,0.017-0.01,0.025-0.015s0.015-0.01,0.025-0.015c0.465-0.245,0.933-0.487,1.403-0.728
				c0.47-0.24,0.942-0.478,1.417-0.713c0.17-0.08,0.34-0.162,0.51-0.246c0.17-0.084,0.34-0.169,0.51-0.254
				c0.1-0.045,0.197-0.09,0.295-0.135c0.098-0.045,0.195-0.09,0.295-0.135c0.015-0.01,0.027-0.018,0.04-0.024
				s0.025-0.011,0.04-0.016c0.165-0.08,0.33-0.158,0.495-0.235s0.33-0.155,0.495-0.235c0.205-0.095,0.413-0.19,0.62-0.285
				c0.207-0.095,0.415-0.19,0.62-0.285c0.02-0.005,0.037-0.013,0.055-0.02s0.035-0.015,0.055-0.02
				c0.255-0.115,0.513-0.23,0.771-0.344c0.259-0.114,0.519-0.226,0.779-0.336c0.075-0.035,0.15-0.067,0.226-0.1
				s0.154-0.065,0.234-0.1c0.27-0.115,0.54-0.23,0.81-0.344c0.27-0.114,0.54-0.226,0.81-0.336c0.015-0.005,0.027-0.01,0.04-0.015
				s0.025-0.01,0.04-0.015c0.01-0.005,0.018-0.008,0.025-0.01s0.015-0.005,0.025-0.01c0.45-0.185,0.903-0.367,1.358-0.547
				c0.455-0.18,0.912-0.358,1.372-0.533c0.05-0.02,0.103-0.04,0.155-0.06c0.052-0.02,0.105-0.04,0.155-0.06
				c0.055-0.02,0.11-0.04,0.164-0.06s0.106-0.04,0.156-0.06c0.47-0.18,0.94-0.355,1.411-0.526s0.944-0.339,1.419-0.504l2.575-0.89
				l2.575-0.89h0.005h0.005c0,0,0,0,0.001-0.001s0.004-0.004,0.009-0.009l2.265-0.78l2.265-0.78l1.215-0.42l1.215-0.42l2.23-0.775
				l2.23-0.775l1.165-0.405l1.165-0.405l3.35,3.655l3.35,3.655l4.45,4.855l4.45,4.855l3.71,4.045l3.71,4.045
				c3.43,3.74,8.095,5.61,12.759,5.61s9.326-1.87,12.751-5.61l3.005-3.28l3.005-3.28l7.335-7.995l7.335-7.995l0.785-0.86l0.785-0.86
				l3.82,1.725l3.82,1.725l0.95,0.32l0.95,0.32l2.29,0.775l2.29,0.775c0.24,0.08,0.482,0.162,0.725,0.247s0.485,0.173,0.725,0.263
				c1.145,0.395,2.28,0.812,3.406,1.246c1.126,0.434,2.244,0.884,3.354,1.344c0.67,0.285,1.338,0.575,2.001,0.871
				c0.664,0.296,1.324,0.599,1.979,0.909c0.16,0.07,0.32,0.142,0.479,0.216c0.159,0.074,0.316,0.149,0.471,0.224
				c0.17,0.08,0.34,0.16,0.511,0.241c0.171,0.081,0.344,0.164,0.519,0.249c0.545,0.265,1.09,0.532,1.634,0.806
				c0.544,0.274,1.086,0.554,1.626,0.844c0.21,0.105,0.415,0.21,0.619,0.316c0.204,0.106,0.406,0.214,0.611,0.324
				c0.845,0.46,1.688,0.93,2.524,1.409c0.836,0.479,1.666,0.966,2.486,1.461c1.98,1.195,3.92,2.44,5.819,3.736
				c1.899,1.296,3.756,2.644,5.571,4.044c0.45,0.345,0.9,0.695,1.347,1.049c0.448,0.354,0.893,0.711,1.333,1.071
				c0.675,0.55,1.345,1.11,2.01,1.677c0.665,0.568,1.325,1.143,1.98,1.723c0.23,0.2,0.457,0.402,0.684,0.606
				s0.451,0.409,0.676,0.614c0.17,0.155,0.34,0.313,0.51,0.471c0.17,0.159,0.34,0.319,0.51,0.479c0.175,0.16,0.35,0.323,0.524,0.486
				c0.174,0.164,0.346,0.329,0.516,0.494c0.25,0.24,0.5,0.483,0.75,0.728c0.25,0.245,0.5,0.493,0.75,0.743
				c0.2,0.195,0.398,0.392,0.594,0.591c0.196,0.199,0.391,0.399,0.586,0.599c0.77,0.775,1.525,1.562,2.267,2.36
				s1.473,1.605,2.193,2.42c0.185,0.21,0.372,0.423,0.559,0.636s0.371,0.429,0.551,0.644c0.2,0.225,0.398,0.452,0.593,0.682
				s0.388,0.463,0.578,0.698c0.245,0.29,0.49,0.582,0.732,0.877c0.242,0.295,0.482,0.592,0.717,0.893
				c0.095,0.115,0.19,0.23,0.284,0.346s0.186,0.234,0.276,0.354c0.245,0.305,0.487,0.612,0.727,0.921s0.477,0.619,0.712,0.929
				c0.28,0.365,0.56,0.733,0.838,1.103c0.277,0.37,0.552,0.742,0.822,1.117c1.69,2.325,3.303,4.712,4.835,7.157
				c1.533,2.445,2.985,4.947,4.355,7.502c3.6,6.72,6.613,13.807,8.98,21.185c2.367,7.378,4.09,15.045,5.11,22.925l3.995,31.075
				L396.21,470.22z"/>
			<path id="XMLID_1044_" style="fill:#CA874E;" d="M229.42,250.29h13.87h13.87v21.105V292.5c0,0.945-0.302,1.83-0.829,2.556
				c-0.526,0.726-1.276,1.294-2.171,1.604c-0.005,0.005-0.01,0.008-0.015,0.009s-0.01,0.001-0.015,0.001l-3.015,1.045l-3.015,1.045
				l-1.165,0.405l-1.165,0.405l-0.02,0.01l-0.02,0.01l-3.425,1.185l-3.425,1.185l-2.265,0.78l-2.265,0.78
				c-0.005,0.005-0.007,0.008-0.009,0.009s-0.001,0.001-0.001,0.001h-0.005h-0.005l-2.575,0.89l-2.575,0.89
				c-0.355,0.125-0.71,0.253-1.064,0.38s-0.706,0.255-1.056,0.38c-0.245,0.09-0.49,0.182-0.735,0.276
				c-0.245,0.094-0.49,0.189-0.735,0.284c-2.06,0.785-4.093,1.627-6.096,2.522c-2.004,0.895-3.979,1.843-5.924,2.838
				c-0.645,0.33-1.288,0.665-1.926,1.006c-0.639,0.341-1.274,0.689-1.904,1.044c-0.08,0.045-0.157,0.09-0.234,0.134
				c-0.076,0.044-0.151,0.086-0.226,0.126v0.005v0.005c-2.46,1.395-4.865,2.87-7.213,4.425s-4.638,3.19-6.868,4.905
				c-3.265,2.5-6.398,5.16-9.389,7.97s-5.841,5.77-8.541,8.87c-0.235,0.265-0.462,0.533-0.688,0.8
				c-0.225,0.267-0.448,0.535-0.673,0.8c-1.345,1.595-2.65,3.225-3.915,4.889s-2.49,3.361-3.675,5.091
				c-0.78,1.145-1.545,2.305-2.293,3.48s-1.477,2.365-2.187,3.57c-1.635,2.76-3.168,5.59-4.594,8.484s-2.746,5.851-3.956,8.866
				c-0.39,0.995-0.773,1.997-1.146,3.005s-0.739,2.02-1.094,3.035c-0.115,0.34-0.232,0.68-0.347,1.02
				c-0.115,0.34-0.228,0.68-0.333,1.02c-0.31,0.955-0.608,1.917-0.894,2.886s-0.561,1.944-0.826,2.924
				c-0.115,0.415-0.23,0.832-0.343,1.251s-0.222,0.839-0.327,1.259c0,0.005,0,0.008,0,0.009s0,0.001,0,0.001
				c-0.265,1.055-0.515,2.115-0.753,3.181s-0.462,2.139-0.677,3.219c-0.21,1.07-0.41,2.147-0.596,3.23
				c-0.186,1.082-0.359,2.17-0.514,3.26l-4.935,34.06l-4.935,34.06c1.065,1.015,2.135,2.012,3.214,2.996s2.166,1.954,3.266,2.914
				c2.965,2.605,5.99,5.125,9.071,7.56c3.081,2.435,6.219,4.785,9.409,7.05c-9.18-3.605-18.103-7.722-26.73-12.319
				c-8.627-4.596-16.96-9.671-24.96-15.191l4.43-30.565l4.43-30.565c0.155-1.09,0.328-2.178,0.514-3.26
				c0.186-1.083,0.386-2.16,0.596-3.23c0.215-1.08,0.44-2.153,0.677-3.219s0.487-2.126,0.753-3.181c0,0,0,0,0-0.001s0-0.004,0-0.009
				c0.11-0.42,0.22-0.84,0.331-1.259s0.224-0.836,0.339-1.251c0.265-0.98,0.54-1.955,0.826-2.924s0.584-1.931,0.894-2.886
				c0.11-0.34,0.223-0.68,0.336-1.02c0.114-0.34,0.229-0.68,0.344-1.02c0.355-1.015,0.72-2.028,1.095-3.035s0.76-2.01,1.155-3.005
				c1.73-4.325,3.692-8.532,5.869-12.605c2.176-4.073,4.566-8.01,7.151-11.795c1.185-1.73,2.41-3.428,3.675-5.091
				s2.57-3.294,3.915-4.889c0.225-0.265,0.448-0.532,0.673-0.8c0.225-0.268,0.453-0.535,0.688-0.8
				c1.505-1.725,3.055-3.407,4.65-5.045s3.235-3.23,4.92-4.775c0.225-0.205,0.45-0.41,0.675-0.614
				c0.225-0.204,0.45-0.406,0.675-0.606c0.25-0.225,0.5-0.447,0.751-0.669c0.251-0.221,0.504-0.441,0.759-0.661
				c0.225-0.195,0.452-0.39,0.681-0.584s0.459-0.386,0.689-0.576c0.085-0.07,0.17-0.14,0.255-0.21s0.17-0.14,0.255-0.21v-0.005
				v-0.005c0.55-0.455,1.102-0.905,1.659-1.35s1.116-0.885,1.681-1.32c0.205-0.16,0.413-0.317,0.62-0.475
				c0.207-0.158,0.415-0.315,0.62-0.475c0.045-0.03,0.088-0.06,0.13-0.091c0.043-0.031,0.085-0.064,0.13-0.099
				c0.315-0.235,0.63-0.467,0.946-0.699s0.634-0.461,0.954-0.691c0.665-0.48,1.337-0.953,2.015-1.418
				c0.678-0.465,1.36-0.922,2.045-1.372c0.245-0.16,0.49-0.32,0.735-0.478s0.49-0.312,0.735-0.463
				c0.51-0.335,1.022-0.66,1.539-0.979c0.516-0.319,1.036-0.631,1.561-0.941c0.385-0.23,0.773-0.46,1.161-0.687
				s0.779-0.452,1.169-0.672v-0.005V314.3c0.075-0.04,0.15-0.083,0.226-0.126c0.076-0.044,0.154-0.089,0.234-0.134
				c0.22-0.125,0.44-0.247,0.661-0.369s0.444-0.241,0.669-0.361c0.165-0.09,0.33-0.18,0.495-0.269
				c0.165-0.089,0.33-0.176,0.495-0.261c0.045-0.025,0.09-0.05,0.135-0.075c0.045-0.025,0.09-0.05,0.135-0.075
				c0.01-0.005,0.017-0.01,0.025-0.015s0.015-0.01,0.025-0.015c0.34-0.175,0.68-0.35,1.02-0.524c0.34-0.174,0.68-0.346,1.02-0.516
				c0.13-0.065,0.26-0.133,0.39-0.2s0.26-0.135,0.39-0.2c0.17-0.08,0.34-0.162,0.51-0.246c0.17-0.084,0.34-0.169,0.51-0.254
				c0.095-0.045,0.19-0.087,0.285-0.13s0.19-0.085,0.285-0.13c0.005,0,0.008-0.002,0.01-0.005s0.005-0.005,0.01-0.005
				c0.015-0.01,0.027-0.018,0.04-0.024s0.025-0.011,0.04-0.016c0.01-0.005,0.022-0.01,0.035-0.015
				c0.012-0.005,0.025-0.01,0.035-0.015c0.155-0.075,0.31-0.148,0.464-0.22c0.154-0.073,0.306-0.145,0.456-0.22
				c0.205-0.095,0.413-0.19,0.62-0.285c0.207-0.095,0.415-0.19,0.62-0.285c0.02-0.005,0.037-0.013,0.055-0.02
				s0.035-0.015,0.055-0.02c0.255-0.115,0.513-0.23,0.771-0.344c0.259-0.114,0.519-0.226,0.779-0.336
				c0.075-0.035,0.15-0.067,0.226-0.1s0.154-0.065,0.234-0.1c0.27-0.115,0.54-0.23,0.81-0.344c0.27-0.114,0.54-0.226,0.81-0.336
				c0.015-0.005,0.027-0.01,0.04-0.015s0.025-0.01,0.04-0.015c0.01-0.005,0.018-0.008,0.025-0.01s0.015-0.005,0.025-0.01
				c0.45-0.185,0.903-0.367,1.358-0.547c0.455-0.18,0.912-0.358,1.372-0.533c0.05-0.02,0.103-0.04,0.155-0.06
				c0.052-0.02,0.105-0.04,0.155-0.06c0.035-0.015,0.067-0.028,0.1-0.04c0.032-0.013,0.065-0.025,0.1-0.04
				c0.02-0.005,0.04-0.013,0.06-0.02s0.04-0.015,0.06-0.02c0.47-0.18,0.94-0.355,1.411-0.526s0.944-0.339,1.419-0.504l2.575-0.89
				l2.575-0.89h0.005h0.005c0,0,0,0,0.001-0.001s0.004-0.004,0.009-0.009l2.265-0.78l2.265-0.78l1.215-0.42l1.215-0.42l2.23-0.775
				l2.23-0.775l1.165-0.405l1.165-0.405l3.015-1.045l3.015-1.045c0.005,0,0.01,0,0.015-0.001s0.01-0.004,0.015-0.009
				c0.105-0.035,0.21-0.075,0.313-0.119c0.103-0.044,0.203-0.091,0.298-0.141c0.725-0.38,1.322-0.937,1.739-1.609
				c0.416-0.671,0.651-1.456,0.651-2.291v-21.105V250.29z"/>
			<path id="XMLID_845_" style="fill:#1B305C;" d="M283.691,17h-28.262h-28.262c-22.49,0-42.736,9.331-57.157,24.28
				c-14.421,14.95-23.017,35.518-22.207,57.994l1.186,32.916l1.186,32.916h4.588h4.588l1.256,9.363l1.256,9.363
				c0.031,0,0.061-0.002,0.091-0.004c0.03-0.002,0.06-0.005,0.091-0.005c0,0.002,0,0.003,0,0.005c0,0.002,0,0.003,0,0.005h6.016
				h6.016v-9.363v-9.363h81.69h81.69v9.363v9.363h5.681h5.681c0-0.002,0-0.003,0-0.005s0-0.003,0-0.005
				c0.031,0,0.061,0.003,0.091,0.005c0.03,0.002,0.06,0.004,0.091,0.004c0.114,0,0.226-0.007,0.338-0.014s0.224-0.016,0.337-0.02
				l1.253-9.346l1.253-9.346h4.252h4.252l1.186-32.916l1.186-32.916c0.81-22.476-7.786-43.045-22.207-57.994S306.182,17,283.691,17z
				"/>
			<path id="XMLID_844_" style="fill:#192C4C;" d="M200.39,99.276l1.184,32.914l1.184,32.914H188.75h-14.008v9.362v9.362h-6.108
				h-6.108l-1.254-9.362l-1.254-9.362h-4.588h-4.588l-1.19-32.914l-1.19-32.914c-0.805-22.474,7.791-43.044,22.211-57.995
				s34.665-24.284,57.155-24.284h25.963h25.963c-22.49,0-42.737,9.333-57.159,24.284S199.579,76.802,200.39,99.276z"/>
			<path id="XMLID_843_" style="fill:#CA874E;" d="M143.133,165.107c0,5.171,2.096,9.852,5.485,13.241s8.07,5.485,13.241,5.485
				l-2.466-18.387l-2.466-18.387c-3.973,1.084-7.421,3.437-9.877,6.599C144.595,156.82,143.133,160.791,143.133,165.107z"/>
			<path id="XMLID_842_" style="fill:#D99155;" d="M337.454,146.381c0-13.549-3.238-26.565-6.476-36.195s-6.476-15.872-6.476-15.872
				l-0.049-0.11l-0.049-0.11c-8.868,3.432-19.391,6.208-31.057,8.125c-11.667,1.918-24.477,2.977-37.919,2.977
				c-13.298,0-25.977-1.037-37.543-2.916c-11.566-1.879-22.017-4.6-30.86-7.967c0,0-3.238,6.243-6.476,15.872
				c-3.238,9.63-6.476,22.646-6.476,36.195v14.181v14.181c0,2.51-1.017,4.782-2.662,6.426c-1.645,1.645-3.917,2.662-6.426,2.662
				h-1.472h-1.472c1.36,21.668,11.025,36.244,23.661,48.305c12.636,12.061,28.243,21.608,41.488,33.216
				c8.083,7.084,18.161,10.626,28.238,10.626s20.156-3.542,28.238-10.626c13.245-11.608,28.853-21.155,41.489-33.216
				c12.636-12.061,22.3-26.638,23.661-48.305h-1.137h-1.137c-2.51,0-4.782-1.017-6.426-2.662c-1.645-1.645-2.662-3.917-2.662-6.426
				v-14.181V146.381z"/>
			<path id="XMLID_841_" style="fill:#CA874E;" d="M367.724,165.107c0-4.199-1.382-8.076-3.717-11.199s-5.621-5.494-9.429-6.681
				l-2.452,18.286l-2.452,18.286c5.013-0.179,9.526-2.324,12.785-5.687S367.724,170.164,367.724,165.107z"/>
			<path id="XMLID_840_" style="fill:#1B305C;" d="M349.669,183.832l0.002-0.017l0.002-0.017c-0.113,0.004-0.225,0.013-0.337,0.02
				s-0.224,0.014-0.338,0.014h0.335H349.669z"/>
			<path id="XMLID_839_" style="fill:#1B305C;" d="M348.816,183.832h0.091h0.091c-0.031,0-0.061-0.002-0.091-0.004
				c-0.03-0.002-0.06-0.005-0.091-0.005c0,0.002,0,0.003,0,0.005S348.816,183.831,348.816,183.832z"/>
			<path id="XMLID_838_" style="fill:#1B305C;" d="M161.859,183.832h0.091h0.091c0-0.002,0-0.003,0-0.005c0-0.002,0-0.003,0-0.005
				c-0.031,0-0.061,0.003-0.091,0.005C161.92,183.83,161.89,183.832,161.859,183.832z"/>
			<path id="XMLID_837_" style="fill:#CA874E;" d="M261.507,275.655c-6.007,0.912-12.155,0.509-18.04-1.208
				c-5.885-1.718-11.508-4.75-16.464-9.098c-13.246-11.608-28.852-21.154-41.486-33.215c-12.635-12.061-22.298-26.638-23.658-48.306
				h0.986h0.986c2.779,0,5.294-1.126,7.115-2.947s2.947-4.336,2.947-7.115v-13.693v-13.693c0-13.55,3.238-26.566,6.476-36.194
				s6.476-15.87,6.476-15.87c4.529,1.723,9.482,3.278,14.793,4.638c5.31,1.36,10.978,2.526,16.937,3.47
				c-5.329,9.314-9.565,19.714-12.468,30.889c-2.903,11.176-4.474,23.128-4.474,35.546c0,24.795,6.265,47.722,16.882,66.337
				S244.1,268.112,261.507,275.655z"/>
			<path style="fill:#3D2107;" d="M187.742,142.888c-1.229,0-2.421-0.648-3.061-1.797c-0.94-1.688-0.334-3.82,1.354-4.761
				c0.261-0.146,6.491-3.579,15.385-5.309c11.958-2.327,23.094-0.451,32.203,5.426c1.625,1.048,2.091,3.214,1.043,4.838
				c-1.048,1.624-3.214,2.093-4.838,1.043c-7.669-4.947-16.779-6.441-27.071-4.437c-7.811,1.52-13.261,4.523-13.315,4.553
				C188.903,142.745,188.318,142.888,187.742,142.888z"/>
			<path id="XMLID_835_" style="fill:#1B305C;" d="M217.242,162.849c0,3.11-0.876,5.925-2.292,7.963s-3.372,3.298-5.532,3.298
				s-4.116-1.261-5.532-3.298s-2.292-4.853-2.292-7.963c0-3.11,0.876-5.925,2.292-7.963s3.372-3.298,5.532-3.298
				s4.116,1.261,5.532,3.298S217.242,159.739,217.242,162.849z"/>
			<path style="fill:#3D2107;" d="M278.685,142.888c-1.229,0-2.42-0.648-3.061-1.797c-0.94-1.688-0.334-3.82,1.354-4.761
				c0.261-0.146,6.491-3.579,15.386-5.309c11.957-2.327,23.094-0.451,32.202,5.426c1.624,1.048,2.092,3.214,1.044,4.838
				c-1.05,1.625-3.215,2.092-4.839,1.043c-7.669-4.947-16.778-6.441-27.07-4.437c-7.812,1.52-13.262,4.523-13.316,4.553
				C279.846,142.745,279.261,142.888,278.685,142.888z"/>
			<path id="XMLID_833_" style="fill:#1B305C;" d="M308.185,162.849c0,3.11-0.876,5.925-2.292,7.963
				c-1.416,2.038-3.372,3.298-5.532,3.298c-2.16,0-4.116-1.261-5.532-3.298c-1.416-2.038-2.292-4.853-2.292-7.963
				c0-3.11,0.876-5.925,2.292-7.963c1.416-2.038,3.372-3.298,5.532-3.298c2.161,0,4.116,1.261,5.532,3.298
				C307.31,156.923,308.185,159.739,308.185,162.849z"/>
			<path id="XMLID_832_" style="fill:#BF8049;" d="M266.035,194.146h-8.875h-8.875c-1.306,0-2.488-0.529-3.343-1.385
				s-1.385-2.038-1.385-3.343v-0.429v-0.429c0-1.306,0.529-2.488,1.385-3.343s2.038-1.385,3.343-1.385h8.875h8.875
				c1.306,0,2.488,0.529,3.343,1.385s1.385,2.038,1.385,3.343v0.429v0.429c0,1.306-0.529,2.488-1.385,3.343
				S267.34,194.146,266.035,194.146z"/>
			<path id="XMLID_831_" style="fill:#FFFFFF;" d="M235.428,213.431c-0.512,0-0.969,0.219-1.289,0.566
				c-0.32,0.346-0.501,0.82-0.46,1.33c0.478,5.876,3.14,11.537,7.159,15.728c4.019,4.192,9.396,6.914,15.304,6.914h0h0
				c5.908,0,11.284-2.723,15.304-6.914c4.019-4.192,6.681-9.852,7.159-15.728c0.041-0.51-0.14-0.984-0.46-1.33
				c-0.32-0.346-0.778-0.566-1.289-0.566h-20.714H235.428z"/>
			<path style="fill:#1A2E4F;" d="M223.64,158.051c-0.588,0-1.185-0.148-1.733-0.461c-5.436-3.106-11.287-4.051-17.392-2.81
				c-4.491,0.914-7.424,2.712-7.453,2.73c-1.635,1.033-3.796,0.543-4.828-1.09c-1.032-1.634-0.544-3.796,1.09-4.828
				c0.16-0.102,3.988-2.49,9.795-3.671c7.708-1.569,15.405-0.326,22.26,3.591c1.679,0.959,2.262,3.097,1.303,4.775
				C226.037,157.418,224.855,158.051,223.64,158.051z"/>
			<path style="fill:#1A2E4F;" d="M314.584,158.051c-0.589,0-1.186-0.148-1.733-0.461c-5.438-3.107-11.288-4.052-17.393-2.81
				c-4.491,0.914-7.424,2.712-7.452,2.73c-1.633,1.031-3.795,0.545-4.828-1.09c-1.032-1.634-0.545-3.796,1.09-4.828
				c0.16-0.101,3.987-2.49,9.796-3.671c7.707-1.569,15.403-0.326,22.26,3.591c1.679,0.959,2.262,3.097,1.303,4.775
				C316.979,157.417,315.799,158.051,314.584,158.051z"/>
			<path id="XMLID_828_" style="fill:#1B305C;" d="M296.743,215.486l-6.86-7.824l-6.86-7.824c-0.557-0.635-1.238-1.135-1.991-1.476
				c-0.753-0.341-1.577-0.523-2.422-0.523h-11.234h-11.234h-11.234h-11.234c-0.845,0-1.67,0.182-2.422,0.523
				c-0.753,0.341-1.433,0.841-1.99,1.476l-6.86,7.824l-6.86,7.824c-1.068,1.218-1.542,2.754-1.444,4.253
				c0.098,1.499,0.768,2.96,1.987,4.028c0.557,0.488,1.18,0.852,1.836,1.094s1.344,0.362,2.03,0.362c0.816,0,1.63-0.169,2.384-0.503
				c0.755-0.334,1.45-0.834,2.03-1.496l5.984-6.824l5.984-6.824h9.905h9.905h9.905h9.905l5.984,6.824l5.984,6.824
				c0.58,0.662,1.276,1.161,2.031,1.496c0.755,0.334,1.568,0.503,2.384,0.503c0.687,0,1.375-0.12,2.031-0.362
				c0.656-0.242,1.279-0.606,1.836-1.094c1.218-1.068,1.888-2.529,1.987-4.028C298.284,218.24,297.811,216.704,296.743,215.486z"/>
			<path id="XMLID_1027_" style="fill:#E39123;" d="M227.06,306.07c-0.245,0.09-0.49,0.182-0.735,0.276
				c-0.245,0.094-0.49,0.189-0.735,0.284c-2.06,0.785-4.093,1.627-6.096,2.522c-2.004,0.895-3.979,1.843-5.924,2.838
				c-0.645,0.33-1.288,0.665-1.926,1.006c-0.639,0.341-1.274,0.689-1.904,1.044c-0.08,0.045-0.157,0.09-0.234,0.134
				c-0.076,0.044-0.151,0.086-0.226,0.126v0.005v0.005c-2.46,1.395-4.865,2.87-7.213,4.425s-4.638,3.19-6.868,4.905
				c-3.265,2.5-6.398,5.16-9.389,7.97s-5.841,5.77-8.541,8.87c-0.235,0.265-0.462,0.533-0.688,0.8
				c-0.225,0.267-0.448,0.535-0.673,0.8c-1.345,1.595-2.65,3.225-3.915,4.889s-2.49,3.361-3.675,5.091
				c-0.78,1.145-1.545,2.305-2.293,3.48s-1.477,2.365-2.187,3.57c-1.635,2.76-3.168,5.59-4.594,8.484s-2.746,5.851-3.956,8.866
				c-0.39,0.995-0.773,1.997-1.146,3.005s-0.739,2.02-1.094,3.035c-0.115,0.34-0.232,0.68-0.347,1.02
				c-0.115,0.34-0.228,0.68-0.333,1.02c-0.31,0.955-0.608,1.917-0.894,2.886s-0.561,1.944-0.826,2.924
				c-0.115,0.415-0.23,0.832-0.343,1.251s-0.222,0.839-0.327,1.259c0,0.005,0,0.008,0,0.009s0,0.001,0,0.001
				c-0.265,1.055-0.515,2.115-0.753,3.181s-0.462,2.139-0.677,3.219c-0.21,1.07-0.41,2.147-0.596,3.23
				c-0.186,1.082-0.359,2.17-0.514,3.26l-4.935,34.06l-4.935,34.06c1.065,1.015,2.135,2.012,3.214,2.996s2.166,1.954,3.266,2.914
				c2.965,2.605,5.99,5.125,9.071,7.56c3.081,2.435,6.219,4.785,9.409,7.05c-9.18-3.605-18.103-7.722-26.73-12.319
				c-8.627-4.596-16.96-9.671-24.96-15.191l4.43-30.565l4.43-30.565c0.155-1.09,0.328-2.178,0.514-3.26
				c0.186-1.083,0.386-2.16,0.596-3.23c0.215-1.08,0.44-2.153,0.677-3.219s0.487-2.126,0.753-3.181c0,0,0,0,0-0.001s0-0.004,0-0.009
				c0.11-0.42,0.22-0.84,0.331-1.259s0.224-0.836,0.339-1.251c0.265-0.98,0.54-1.955,0.826-2.924s0.584-1.931,0.894-2.886
				c0.11-0.34,0.223-0.68,0.336-1.02c0.114-0.34,0.229-0.68,0.344-1.02c0.355-1.015,0.72-2.028,1.095-3.035s0.76-2.01,1.155-3.005
				c1.73-4.325,3.692-8.532,5.869-12.605c2.176-4.073,4.566-8.01,7.151-11.795c1.185-1.73,2.41-3.428,3.675-5.091
				s2.57-3.294,3.915-4.889c0.225-0.265,0.448-0.532,0.673-0.8c0.225-0.268,0.453-0.535,0.688-0.8
				c1.505-1.725,3.055-3.407,4.65-5.045s3.235-3.23,4.92-4.775c0.225-0.205,0.45-0.41,0.675-0.614
				c0.225-0.204,0.45-0.406,0.675-0.606c0.25-0.225,0.5-0.447,0.751-0.669c0.251-0.221,0.504-0.441,0.759-0.661
				c0.225-0.195,0.452-0.39,0.681-0.584s0.459-0.386,0.689-0.576c0.085-0.07,0.17-0.14,0.255-0.21s0.17-0.14,0.255-0.21v-0.005
				v-0.005c0.55-0.455,1.102-0.905,1.659-1.35s1.116-0.885,1.681-1.32c0.205-0.16,0.413-0.317,0.62-0.475
				c0.207-0.158,0.415-0.315,0.62-0.475c0.045-0.03,0.088-0.06,0.13-0.091c0.043-0.031,0.085-0.064,0.13-0.099
				c0.315-0.235,0.63-0.467,0.946-0.699s0.634-0.461,0.954-0.691c0.665-0.48,1.337-0.953,2.015-1.418
				c0.678-0.465,1.36-0.922,2.045-1.372c0.245-0.16,0.49-0.32,0.735-0.478s0.49-0.312,0.735-0.463
				c0.51-0.335,1.022-0.66,1.539-0.979c0.516-0.319,1.036-0.631,1.561-0.941c0.385-0.23,0.773-0.46,1.161-0.687
				s0.779-0.452,1.169-0.672v-0.005V314.3c0.075-0.04,0.15-0.083,0.226-0.126c0.076-0.044,0.154-0.089,0.234-0.134
				c0.22-0.125,0.44-0.247,0.661-0.369s0.444-0.241,0.669-0.361c0.165-0.09,0.33-0.18,0.495-0.269
				c0.165-0.089,0.33-0.176,0.495-0.261c0.045-0.025,0.09-0.05,0.135-0.075c0.045-0.025,0.09-0.05,0.135-0.075
				c0.01-0.005,0.017-0.01,0.025-0.015s0.015-0.01,0.025-0.015c0.34-0.175,0.68-0.35,1.02-0.524c0.34-0.174,0.68-0.346,1.02-0.516
				c0.13-0.065,0.26-0.133,0.39-0.2s0.26-0.135,0.39-0.2c0.17-0.08,0.34-0.162,0.51-0.246c0.17-0.084,0.34-0.169,0.51-0.254
				c0.095-0.045,0.19-0.087,0.285-0.13s0.19-0.085,0.285-0.13c0.005,0,0.008-0.002,0.01-0.005s0.005-0.005,0.01-0.005
				c0.015-0.01,0.027-0.018,0.04-0.024s0.025-0.011,0.04-0.016c0.01-0.005,0.022-0.01,0.035-0.015
				c0.012-0.005,0.025-0.01,0.035-0.015c0.155-0.075,0.31-0.148,0.464-0.22c0.154-0.073,0.306-0.145,0.456-0.22
				c0.205-0.095,0.413-0.19,0.62-0.285c0.207-0.095,0.415-0.19,0.62-0.285c0.02-0.005,0.037-0.013,0.055-0.02
				s0.035-0.015,0.055-0.02c0.255-0.115,0.513-0.23,0.771-0.344c0.259-0.114,0.519-0.226,0.779-0.336
				c0.075-0.035,0.15-0.067,0.226-0.1s0.154-0.065,0.234-0.1c0.27-0.115,0.54-0.23,0.81-0.344c0.27-0.114,0.54-0.226,0.81-0.336
				c0.015-0.005,0.027-0.01,0.04-0.015s0.025-0.01,0.04-0.015c0.01-0.005,0.018-0.008,0.025-0.01s0.015-0.005,0.025-0.01
				c0.45-0.185,0.903-0.367,1.358-0.547c0.455-0.18,0.912-0.358,1.372-0.533c0.05-0.02,0.103-0.04,0.155-0.06
				c0.052-0.02,0.105-0.04,0.155-0.06c0.035-0.015,0.067-0.028,0.1-0.04c0.032-0.013,0.065-0.025,0.1-0.04
				c0.02-0.005,0.04-0.013,0.06-0.02s0.04-0.015,0.06-0.02c0.47-0.18,0.94-0.355,1.411-0.526s0.944-0.339,1.419-0.504l2.575-0.89
				l2.575-0.89h0.005h0.005c0,0,0,0,0.001-0.001s0.004-0.004,0.009-0.009l2.265-0.78l2.265-0.78l1.215-0.42l1.215-0.42l2.23-0.775
				l2.23-0.775l1.165-0.405l1.165-0.405l3.35,3.655L227.06,306.07z"/>
			<path id="XMLID_934_" style="fill:#D74545;" d="M213.57,301.12v103.685V508.49c-8.61-1.43-17.075-3.295-25.371-5.569
				c-8.296-2.274-16.424-4.956-24.359-8.021v-84.19v-84.19c0.55-0.455,1.102-0.905,1.659-1.35s1.116-0.885,1.681-1.32
				c0.205-0.16,0.413-0.317,0.62-0.475c0.207-0.158,0.415-0.315,0.62-0.475c0.045-0.03,0.088-0.06,0.13-0.091
				c0.043-0.031,0.085-0.064,0.13-0.099c0.315-0.235,0.63-0.467,0.946-0.699s0.634-0.461,0.954-0.691
				c0.665-0.48,1.337-0.953,2.015-1.418c0.678-0.465,1.36-0.922,2.045-1.372c0.245-0.16,0.49-0.32,0.735-0.478
				s0.49-0.312,0.735-0.463c0.51-0.335,1.022-0.66,1.539-0.979c0.516-0.319,1.036-0.631,1.561-0.941
				c0.385-0.23,0.773-0.46,1.161-0.687s0.779-0.452,1.169-0.672v-0.005V314.3c0.075-0.04,0.15-0.083,0.226-0.126
				c0.076-0.044,0.154-0.089,0.234-0.134c0.22-0.125,0.44-0.247,0.661-0.369s0.444-0.241,0.669-0.361
				c0.165-0.09,0.33-0.18,0.495-0.269c0.165-0.089,0.33-0.176,0.495-0.261c0.045-0.025,0.09-0.05,0.135-0.075
				c0.045-0.025,0.09-0.05,0.135-0.075c0.01-0.005,0.017-0.01,0.025-0.015s0.015-0.01,0.025-0.015
				c0.465-0.245,0.933-0.487,1.403-0.728c0.47-0.24,0.942-0.478,1.417-0.713c0.17-0.08,0.34-0.162,0.51-0.246
				c0.17-0.084,0.34-0.169,0.51-0.254c0.1-0.045,0.197-0.09,0.295-0.135c0.098-0.045,0.195-0.09,0.295-0.135
				c0.015-0.01,0.027-0.018,0.04-0.024s0.025-0.011,0.04-0.016c0.165-0.08,0.33-0.158,0.495-0.235s0.33-0.155,0.495-0.235
				c0.205-0.095,0.413-0.19,0.62-0.285c0.207-0.095,0.415-0.19,0.62-0.285c0.02-0.005,0.037-0.013,0.055-0.02
				s0.035-0.015,0.055-0.02c0.255-0.115,0.513-0.23,0.771-0.344c0.259-0.114,0.519-0.226,0.779-0.336
				c0.075-0.035,0.15-0.067,0.226-0.1s0.154-0.065,0.234-0.1c0.27-0.115,0.54-0.23,0.81-0.344c0.27-0.114,0.54-0.226,0.81-0.336
				c0.015-0.005,0.027-0.01,0.04-0.015s0.025-0.01,0.04-0.015c0.01-0.005,0.018-0.008,0.025-0.01s0.015-0.005,0.025-0.01
				c0.45-0.185,0.903-0.367,1.358-0.547c0.455-0.18,0.912-0.358,1.372-0.533c0.05-0.02,0.103-0.04,0.155-0.06
				c0.052-0.02,0.105-0.04,0.155-0.06c0.055-0.02,0.11-0.04,0.164-0.06s0.106-0.04,0.156-0.06c0.47-0.18,0.94-0.355,1.411-0.526
				s0.944-0.339,1.419-0.504l2.575-0.89l2.575-0.89h0.005h0.005c0,0,0,0,0.001-0.001s0.004-0.004,0.009-0.009l2.265-0.78l2.265-0.78
				l1.215-0.42L213.57,301.12z"/>
			<path id="XMLID_875_" style="fill:#D74545;" d="M350.41,332.66v80.68v80.68c-7.93,3.15-16.055,5.915-24.351,8.271
				s-16.764,4.304-25.379,5.819V405.9V303.69l2.29,0.775l2.29,0.775c0.24,0.08,0.482,0.162,0.725,0.247s0.485,0.173,0.725,0.263
				c1.145,0.395,2.28,0.812,3.406,1.246c1.126,0.434,2.244,0.884,3.354,1.344c0.67,0.285,1.338,0.575,2.001,0.871
				c0.664,0.296,1.324,0.599,1.979,0.909c0.16,0.07,0.32,0.142,0.479,0.216c0.159,0.074,0.316,0.149,0.471,0.224
				c0.17,0.08,0.34,0.16,0.511,0.241c0.171,0.081,0.344,0.164,0.519,0.249c0.545,0.265,1.09,0.532,1.634,0.806
				c0.544,0.274,1.086,0.554,1.626,0.844c0.21,0.105,0.415,0.21,0.619,0.316c0.204,0.106,0.406,0.214,0.611,0.324
				c0.845,0.46,1.688,0.93,2.524,1.409c0.836,0.479,1.666,0.966,2.486,1.461c1.98,1.195,3.92,2.44,5.819,3.736
				c1.899,1.296,3.756,2.644,5.571,4.044c0.45,0.345,0.9,0.695,1.347,1.049c0.448,0.354,0.893,0.711,1.333,1.071
				c0.675,0.55,1.345,1.11,2.01,1.677c0.665,0.568,1.325,1.143,1.98,1.723c0.23,0.2,0.457,0.402,0.684,0.606
				s0.451,0.409,0.676,0.614c0.17,0.155,0.34,0.313,0.51,0.471c0.17,0.159,0.34,0.319,0.51,0.479c0.175,0.16,0.35,0.323,0.524,0.486
				C350.068,332.33,350.24,332.495,350.41,332.66z"/>
			<path id="XMLID_877_" style="fill:#E39123;" d="M274.9,315.38v97.965v97.965c-3.12,0.23-6.255,0.402-9.405,0.517
				S259.18,512,256,512c-3.37,0-6.727-0.065-10.069-0.195s-6.666-0.325-9.971-0.585V413.3v-97.92h19.47H274.9z"/>
			<path id="XMLID_821_" style="fill:#FFFFFF;" d="M255.785,315.792c-1.493-7.319-7.64-14.406-14.405-20.237
				c-6.764-5.831-14.146-10.405-18.11-12.7c-0.646-0.374-1.372-0.326-1.938,0.001c-0.565,0.328-0.969,0.935-0.969,1.681v7.113v7.113
				c11.318,17.86,19.669,25.885,25.442,29.299c5.773,3.414,8.969,2.218,9.979,1.637c1.01,0.581,4.206,1.777,9.979-1.637
				s14.123-11.439,25.442-29.299v-7.113v-7.113c0-0.746-0.404-1.354-0.969-1.681s-1.292-0.375-1.938-0.001
				c-3.963,2.295-11.345,6.87-18.11,12.7C263.425,301.386,257.279,308.473,255.785,315.792z"/>
		</g>
	</g>
</g>
</svg>
